<svg width="20" height="20" viewBox="0 0 20 20" fill="none" xmlns="http://www.w3.org/2000/svg">
<path d="M7.57293 11.0619C7.18833 11.29 6.83247 11.4997 6.47662 11.7094C5.85838 12.0736 5.24732 12.4414 4.62548 12.7983C4.50327 12.8682 4.46013 12.9528 4.45294 13.0852C4.40622 13.8173 4.3523 14.553 4.30198 15.2851C4.27322 15.7155 3.96769 16.0098 3.56152 15.9951C3.16613 15.9804 2.87498 15.6493 2.88935 15.2189C2.90373 14.8841 2.92889 14.5457 2.95046 14.2109C2.95765 14.0785 2.96484 13.946 2.97203 13.7842C2.86419 13.8467 2.78152 13.8909 2.69885 13.9387C2.15608 14.2587 1.61332 14.5825 1.06696 14.9025C0.786596 15.0644 0.463094 15.0239 0.233049 14.8106C0.020976 14.6156 -0.0724799 14.2698 0.0641095 14.0049C0.139593 13.8578 0.268994 13.7143 0.409177 13.626C0.966319 13.2765 1.53424 12.9528 2.09857 12.618C2.1489 12.5886 2.19922 12.5555 2.26751 12.515C1.84337 12.3016 1.44079 12.103 1.03821 11.9007C0.685951 11.7204 0.531389 11.3746 0.632034 11.0178C0.754246 10.5947 1.20715 10.3813 1.61332 10.5763C2.2747 10.8927 2.92889 11.2238 3.58308 11.5549C3.70889 11.6211 3.80594 11.6174 3.92815 11.5438C4.84833 10.992 5.77211 10.4512 6.69229 9.90677C6.74261 9.87734 6.79294 9.84423 6.86842 9.7964C6.66713 9.67868 6.48381 9.56832 6.3005 9.46164C5.51331 8.99443 4.72253 8.53459 3.93894 8.06003C3.80235 7.97542 3.69811 7.98277 3.56152 8.05267C2.9253 8.38008 2.28548 8.69645 1.64208 9.00915C1.26106 9.19677 0.851296 9.06065 0.675167 8.69645C0.49185 8.3249 0.639223 7.90552 1.02383 7.70687C1.37609 7.52293 1.73194 7.35003 2.0842 7.16977C2.13811 7.14402 2.18843 7.11459 2.26032 7.07412C1.71756 6.75407 1.19636 6.44505 0.675167 6.13604C0.578117 6.07718 0.477472 6.022 0.380422 5.95946C0.020976 5.73873 -0.0976411 5.31567 0.0964596 4.96251C0.294155 4.60567 0.721895 4.49163 1.09212 4.705C1.67443 5.04345 2.25313 5.38925 2.83184 5.73137C2.86779 5.75345 2.90373 5.77184 2.97203 5.81231C2.95046 5.45547 2.93249 5.13174 2.91452 4.80433C2.90373 4.64982 2.88935 4.49899 2.88576 4.34448C2.87857 3.93982 3.16613 3.61609 3.54714 3.59769C3.94612 3.5793 4.26603 3.86624 4.29479 4.27826C4.3487 5.02873 4.40262 5.78288 4.44935 6.53334C4.45654 6.65842 4.50327 6.72832 4.6111 6.78718C5.54206 7.33163 6.46584 7.87977 7.39321 8.42791C7.44353 8.45733 7.49386 8.48676 7.56934 8.52723C7.57293 8.4463 7.58012 8.38744 7.58012 8.33226C7.58012 7.23599 7.57653 6.13604 7.58372 5.03977C7.58372 4.90733 7.54058 4.83008 7.43275 4.7565C6.82529 4.3408 6.21782 3.9251 5.61755 3.50204C5.16105 3.18199 5.197 2.50878 5.67865 2.25494C5.93386 2.12251 6.18907 2.14458 6.4263 2.30645C6.7498 2.52717 7.0733 2.7479 7.3968 2.96862C7.44353 3.00173 7.49385 3.03484 7.58012 3.09002C7.58012 2.99438 7.58012 2.92816 7.58012 2.86562C7.58012 2.20344 7.57653 1.54127 7.58012 0.879088C7.58372 0.378777 7.95395 0.0476886 8.40685 0.124943C8.72316 0.176445 8.96399 0.448673 8.98915 0.779762C8.99274 0.827586 8.98915 0.879088 8.98915 0.926912C8.98915 6.83868 8.98915 12.7468 8.98915 18.6585C8.98915 19.0558 8.82021 19.3354 8.51109 19.4384C8.04021 19.6003 7.58012 19.2582 7.57653 18.7358C7.57293 18.0663 7.57653 17.4004 7.57653 16.7309C7.57653 16.6646 7.57653 16.6021 7.57653 16.4917C7.32492 16.6646 7.10565 16.8118 6.88999 16.959C6.73542 17.0656 6.58446 17.1723 6.4263 17.2753C6.06326 17.5181 5.63552 17.4445 5.41266 17.1024C5.18262 16.7529 5.27967 16.3152 5.6463 16.0613C6.24658 15.6456 6.84685 15.2336 7.44353 14.8142C7.50464 14.7701 7.56934 14.6744 7.56934 14.6045C7.57653 13.4641 7.57653 12.3237 7.57293 11.1833C7.58372 11.1575 7.58012 11.1281 7.57293 11.0619Z" fill="#E5E5E5"/>
<path d="M18.6331 5.0399C18.421 5.29742 18.1874 5.53654 18.0005 5.80876C17.7273 6.21343 17.4433 6.62545 17.2384 7.07058C16.8898 7.82472 17.0839 8.53105 17.7237 9.04975C18.306 9.52431 18.9889 9.78183 19.6934 9.99151C19.7761 10.0173 19.8624 10.0393 19.8947 10.0504C19.3232 10.3079 18.7265 10.5691 18.137 10.8487C17.9609 10.9333 17.7992 11.062 17.6482 11.1908C17.0947 11.658 16.9221 12.2687 17.1486 12.9713C17.3355 13.5599 17.6877 14.0455 18.0723 14.509C18.2377 14.7077 18.4174 14.8953 18.6223 15.1197C18.3671 15.0682 18.1514 15.0167 17.9322 14.9799C17.3642 14.8843 16.7963 14.807 16.2176 14.8769C15.3945 14.9799 14.8661 15.4986 14.7511 16.3374C14.6432 17.132 14.7798 17.9009 14.9739 18.6624C14.9847 18.7028 14.9919 18.7433 15.0135 18.8242C14.8158 18.644 14.6504 18.4858 14.4779 18.3386C14.0394 17.9634 13.5865 17.6139 13.0617 17.3785C12.2385 17.0106 11.5232 17.2129 10.9949 17.9597C10.6138 18.4968 10.3802 19.1038 10.1933 19.7329C10.1753 19.7881 10.1609 19.8469 10.125 19.8947C10.125 18.6771 10.125 17.4631 10.125 16.2307C12.048 16.1645 13.6296 15.3883 14.8301 13.8505C15.7324 12.6917 16.1637 11.3563 16.1242 9.87379C16.0379 6.48933 13.2702 3.84063 10.1322 3.85902C10.1322 2.58617 10.1322 1.31332 10.1322 0C10.1609 0.077254 10.1789 0.121399 10.1897 0.165544C10.4126 0.886581 10.675 1.58922 11.1171 2.20358C11.6311 2.91358 12.3176 3.10855 13.1156 2.76643C13.7626 2.49052 14.2982 2.05275 14.7942 1.55612C14.8625 1.48622 14.9308 1.42 14.9991 1.35011C15.0063 1.34275 15.0207 1.34275 15.035 1.33907C14.9703 1.70694 14.8805 2.07114 14.8517 2.43902C14.8158 2.91358 14.787 3.3955 14.8337 3.86638C14.9128 4.66467 15.4484 5.17234 16.232 5.2827C16.976 5.38571 17.6985 5.26431 18.4174 5.07669C18.4821 5.0583 18.5432 5.04358 18.6079 5.02887C18.6115 5.02887 18.6187 5.03254 18.6331 5.0399Z" fill="#E5E5E5"/>
<path d="M10.1287 14.9542C10.1287 11.6875 10.1287 8.41704 10.1287 5.11719C11.836 5.19812 13.2163 5.90076 14.1257 7.37595C15.2256 9.16015 15.2004 10.9958 14.0969 12.7764C13.033 14.4833 11.1746 15.0278 10.1287 14.9542Z" fill="#E5E5E5"/>
</svg>
