<svg width="316" height="48" viewBox="0 0 316 48" fill="none" xmlns="http://www.w3.org/2000/svg">
<path d="M28.4375 16.8926L28.6621 17.584H43.7471L32.1309 26.0234L31.543 26.4512L31.7676 27.1416L36.2051 40.7988L24.5879 32.3584L24 31.9307L23.4121 32.3584L11.7939 40.7988L16.2324 27.1416L16.457 26.4512L15.8691 26.0234L4.25293 17.584H19.3379L19.5625 16.8926L24 3.23535L28.4375 16.8926Z" stroke="white" stroke-width="2"/>
<path d="M95.4375 16.8926L95.6621 17.584H110.747L99.1309 26.0234L98.543 26.4512L98.7676 27.1416L103.205 40.7988L91.5879 32.3584L91 31.9307L90.4121 32.3584L78.7939 40.7988L83.2324 27.1416L83.457 26.4512L82.8691 26.0234L71.2529 17.584H86.3379L86.5625 16.8926L91 3.23535L95.4375 16.8926Z" stroke="white" stroke-width="2"/>
<path d="M162.438 16.8926L162.662 17.584H177.747L166.131 26.0234L165.543 26.4512L165.768 27.1416L170.205 40.7988L158.588 32.3584L158 31.9307L157.412 32.3584L145.794 40.7988L150.232 27.1416L150.457 26.4512L149.869 26.0234L138.253 17.584H153.338L153.562 16.8926L158 3.23535L162.438 16.8926Z" stroke="white" stroke-width="2"/>
<path d="M229.438 16.8926L229.662 17.584H244.747L233.131 26.0234L232.543 26.4512L232.768 27.1416L237.205 40.7988L225.588 32.3584L225 31.9307L224.412 32.3584L212.794 40.7988L217.232 27.1416L217.457 26.4512L216.869 26.0234L205.253 17.584H220.338L220.562 16.8926L225 3.23535L229.438 16.8926Z" stroke="white" stroke-width="2"/>
<path d="M296.438 16.8926L296.662 17.584H311.747L300.131 26.0234L299.543 26.4512L299.768 27.1416L304.205 40.7988L292.588 32.3584L292 31.9307L291.412 32.3584L279.794 40.7988L284.232 27.1416L284.457 26.4512L283.869 26.0234L272.253 17.584H287.338L287.562 16.8926L292 3.23535L296.438 16.8926Z" stroke="white" stroke-width="2"/>
</svg>
