<svg width="21" height="16" viewBox="0 0 21 16" fill="none" xmlns="http://www.w3.org/2000/svg">
<path d="M19.966 11.6876C20.1025 12.1036 20.2763 12.6908 20.4748 13.2658C20.7851 14.2078 20.1522 15.1499 19.147 15.1499C13.8974 15.1621 8.63549 15.1621 3.38596 15.1376C1.6113 15.1254 0.357864 14.2568 0.0724282 12.752C-0.0640843 12.0547 0.0103771 11.2839 0.14689 10.5866C0.593658 8.21318 1.11489 5.85201 1.62371 3.47861C1.71058 3.06266 1.84709 2.6467 2.03325 2.26745C2.41796 1.48447 2.98883 0.958409 3.94442 0.8116C4.75109 0.68926 5.53293 0.38341 6.31477 0.126496C6.81118 -0.0447802 7.27036 -0.0692482 7.72954 0.224368C8.57344 0.774898 9.49179 0.909473 10.497 0.885005C12.7309 0.836068 14.9647 0.87277 17.1985 0.885005C17.9928 0.885005 17.9928 0.897239 18.2162 1.63128C18.5016 2.61 18.7746 3.58872 19.0725 4.56744C19.147 4.78765 19.3083 4.9834 19.4448 5.17914C19.7551 5.60733 20.1646 5.97435 20.3632 6.43924C20.8968 7.66265 20.9092 8.98392 20.7603 10.293C20.7106 10.7211 20.3135 11.1004 19.966 11.6876ZM1.05284 9.70572C2.14494 8.86158 3.29909 8.80041 4.49047 8.81264C9.20636 8.82488 13.9222 8.81264 18.6257 8.82488C19.0849 8.82488 19.5565 8.88605 20.1522 8.92275C20.0405 8.24988 19.9784 7.62594 19.8171 7.02648C19.4696 5.72967 18.6133 5.22808 17.2854 5.5584C16.3671 5.79084 15.4363 6.03552 14.5924 6.42701C12.0731 7.58924 9.45456 7.40573 6.82359 7.07541C6.53816 7.03871 6.42647 6.8919 6.4637 6.62275C6.50093 6.3169 6.53816 6.02329 6.56298 5.71744C6.63744 4.64085 6.72431 3.56425 6.78636 2.48766C6.81118 1.94936 6.78636 1.39883 6.78636 0.774898C6.52575 0.860537 6.31477 0.921707 6.1038 0.982877C5.38401 1.17862 4.67662 1.41107 3.95683 1.55788C3.37355 1.66798 2.96401 1.9616 2.74063 2.47543C2.56688 2.86691 2.43037 3.27064 2.33109 3.68659C2.14494 4.43287 2.00842 5.19138 1.84709 5.94988C1.59889 7.16105 1.33827 8.35998 1.05284 9.70572ZM11.0803 14.4403C13.6244 14.4403 16.1685 14.4403 18.7126 14.4403C18.8739 14.4403 19.0477 14.4525 19.209 14.4281C19.5689 14.3791 19.8667 14.0243 19.8171 13.694C19.7675 13.3515 19.5565 13.1557 19.1842 13.1679C19.0229 13.1679 18.8491 13.1679 18.6878 13.1679C13.9098 13.1802 9.1319 13.1924 4.35396 13.1924C4.06852 13.1924 3.77068 13.2169 3.48524 13.1802C2.88955 13.119 2.45519 12.6052 2.4676 11.9935C2.48001 11.4063 2.85232 11.0148 3.47283 10.9781C4.10575 10.9414 4.75109 10.9047 5.39642 10.8924C9.96338 10.8435 14.5303 10.8068 19.0973 10.7578C19.1966 10.7578 19.3083 10.7578 19.4076 10.7456C19.7675 10.7089 20.0653 10.4275 20.0777 10.1339C20.0777 9.74243 19.7923 9.62009 19.482 9.53445C19.3455 9.49775 19.1966 9.49775 19.0477 9.49775C13.8602 9.49775 8.66031 9.48551 3.47283 9.52221C2.93919 9.52221 2.36832 9.71796 1.89673 9.97487C0.419915 10.7946 0.295812 12.9355 1.62371 13.8898C2.16976 14.2812 2.8275 14.4036 3.49765 14.4036C6.02934 14.4403 8.56103 14.4403 11.0803 14.4403ZM7.56821 0.995111C7.45652 2.85468 7.34482 4.61638 7.23313 6.34137C10.5839 7.07541 13.612 6.3169 16.5036 4.89776C13.4382 3.98021 10.6211 2.37755 7.56821 0.995111ZM19.1345 11.4919C18.8739 11.4919 18.6505 11.4919 18.4148 11.4919C16.5532 11.5164 14.6917 11.5653 12.8301 11.5775C9.96338 11.602 7.09662 11.602 4.21745 11.6265C3.96924 11.6265 3.70863 11.6265 3.48524 11.7121C3.36114 11.761 3.19981 11.969 3.21222 12.0914C3.22463 12.2259 3.38596 12.3972 3.52247 12.4706C3.63417 12.5318 3.80791 12.4951 3.94442 12.4951C8.94574 12.4828 13.9595 12.4828 18.9608 12.4706C19.1097 12.4706 19.2586 12.4339 19.4324 12.4217C19.3703 12.2137 19.3331 12.0547 19.2835 11.8956C19.2462 11.7733 19.1966 11.6632 19.1345 11.4919ZM10.7452 1.59458C10.7328 1.63128 10.7328 1.68022 10.7204 1.71692C13.1528 2.87915 15.5728 4.06585 18.3403 4.64085C18.0673 3.67436 17.8315 2.76904 17.5336 1.88819C17.484 1.74139 17.1861 1.60681 17 1.60681C14.9151 1.59458 12.8301 1.59458 10.7452 1.59458Z" fill="#E5E5E5"/>
</svg>
