<svg width="36" height="35" viewBox="0 0 36 35" fill="var(--wagon-icon-bg, transparent)" xmlns="http://www.w3.org/2000/svg">
<rect x="0.5" y="0.5" width="35" height="33.1053" rx="4.5" stroke="var(--wagon-border-color)"/>
<path d="M27.545 21.1613C27.6815 21.5772 27.8553 22.1645 28.0538 22.7395C28.3641 23.6815 27.7312 24.6235 26.7259 24.6235C21.4764 24.6357 16.2145 24.6357 10.9649 24.6113C9.19028 24.599 7.93684 23.7304 7.65141 22.2256C7.5149 21.5283 7.58936 20.7575 7.72587 20.0602C8.17264 17.6868 8.69387 15.3256 9.20269 12.9522C9.28956 12.5363 9.42607 12.1203 9.61222 11.7411C9.99694 10.9581 10.5678 10.432 11.5234 10.2852C12.3301 10.1629 13.1119 9.85704 13.8938 9.60013C14.3902 9.42885 14.8493 9.40438 15.3085 9.698C16.1524 10.2485 17.0708 10.3831 18.076 10.3586C20.3098 10.3097 22.5437 10.3464 24.7775 10.3586C25.5718 10.3586 25.5718 10.3709 25.7952 11.1049C26.0806 12.0836 26.3536 13.0624 26.6515 14.0411C26.7259 14.2613 26.8873 14.457 27.0238 14.6528C27.334 15.081 27.7436 15.448 27.9421 15.9129C28.4758 17.1363 28.4882 18.4576 28.3393 19.7666C28.2896 20.1948 27.8925 20.574 27.545 21.1613ZM8.63182 19.1794C9.72392 18.3352 10.8781 18.274 12.0695 18.2863C16.7853 18.2985 21.5012 18.2863 26.2047 18.2985C26.6639 18.2985 27.1355 18.3597 27.7312 18.3964C27.6195 17.7235 27.5574 17.0996 27.3961 16.5001C27.0486 15.2033 26.1923 14.7017 24.8644 15.032C23.946 15.2645 23.0153 15.5092 22.1714 15.9006C19.6521 17.0629 17.0335 16.8794 14.4026 16.549C14.1171 16.5123 14.0054 16.3655 14.0427 16.0964C14.0799 15.7905 14.1171 15.4969 14.142 15.1911C14.2164 14.1145 14.3033 13.0379 14.3653 11.9613C14.3902 11.423 14.3653 10.8725 14.3653 10.2485C14.1047 10.3342 13.8938 10.3953 13.6828 10.4565C12.963 10.6523 12.2556 10.8847 11.5358 11.0315C10.9525 11.1416 10.543 11.4352 10.3196 11.9491C10.1459 12.3405 10.0094 12.7443 9.91007 13.1602C9.72392 13.9065 9.5874 14.665 9.42607 15.4235C9.17787 16.6347 8.91725 17.8336 8.63182 19.1794ZM18.6593 23.9139C21.2034 23.9139 23.7475 23.9139 26.2916 23.9139C26.4529 23.9139 26.6267 23.9262 26.788 23.9017C27.1479 23.8527 27.4457 23.498 27.3961 23.1676C27.3464 22.8251 27.1355 22.6293 26.7632 22.6416C26.6018 22.6416 26.4281 22.6416 26.2668 22.6416C21.4888 22.6538 16.7109 22.666 11.9329 22.666C11.6475 22.666 11.3497 22.6905 11.0642 22.6538C10.4685 22.5926 10.0342 22.0788 10.0466 21.4671C10.059 20.8799 10.4313 20.4884 11.0518 20.4517C11.6847 20.415 12.3301 20.3783 12.9754 20.3661C17.5424 20.3171 22.1093 20.2804 26.6763 20.2315C26.7756 20.2315 26.8873 20.2315 26.9865 20.2192C27.3464 20.1825 27.6443 19.9012 27.6567 19.6075C27.6567 19.2161 27.3713 19.0937 27.061 19.0081C26.9245 18.9714 26.7756 18.9714 26.6267 18.9714C21.4392 18.9714 16.2393 18.9591 11.0518 18.9958C10.5182 18.9958 9.9473 19.1916 9.47571 19.4485C7.99889 20.2682 7.87479 22.4091 9.20269 23.3634C9.74874 23.7549 10.4065 23.8772 11.0766 23.8772C13.6083 23.9139 16.14 23.9139 18.6593 23.9139ZM15.1472 10.4687C15.0355 12.3283 14.9238 14.09 14.8121 15.815C18.1629 16.549 21.191 15.7905 24.0826 14.3714C21.0172 13.4538 18.2001 11.8512 15.1472 10.4687ZM26.7135 20.9655C26.4529 20.9655 26.2295 20.9655 25.9937 20.9655C24.1322 20.99 22.2707 21.0389 20.4091 21.0512C17.5424 21.0756 14.6756 21.0756 11.7964 21.1001C11.5482 21.1001 11.2876 21.1001 11.0642 21.1857C10.9401 21.2347 10.7788 21.4426 10.7912 21.565C10.8036 21.6996 10.9649 21.8708 11.1015 21.9442C11.2131 22.0054 11.3869 21.9687 11.5234 21.9687C16.5247 21.9565 21.5385 21.9565 26.5398 21.9442C26.6887 21.9442 26.8376 21.9075 27.0114 21.8953C26.9493 21.6873 26.9121 21.5283 26.8624 21.3692C26.8252 21.2469 26.7756 21.1368 26.7135 20.9655ZM18.3242 11.0682C18.3118 11.1049 18.3118 11.1538 18.2994 11.1905C20.7318 12.3528 23.1518 13.5395 25.9193 14.1145C25.6462 13.148 25.4104 12.2427 25.1126 11.3618C25.063 11.215 24.7651 11.0804 24.579 11.0804C22.494 11.0682 20.4091 11.0682 18.3242 11.0682Z" fill="var(--wagon-icon-color)"/>
</svg>
