<svg width="908" height="147" fill="none" xmlns="http://www.w3.org/2000/svg">
    <!-- наверно можно убрать эту обертку: -->
    <!-- <path d="M835 92V28H130.967v64M835 114.545V140H129" stroke="#999"/> -->
    <path d="M838 92V25H128.106v67M838 114.517V143H105" stroke="#D9D9D9"/>
    <path d="M128 92V25H11.815C5.29 25 0 30.465 0 37.207v93.586C0 137.534 5.29 143 11.815 143H128 91.57M41 25v117M129 88H89M41.49 61.128l48 27" stroke="#D9D9D9"/>
    <path d="M41 60v34M1 60v40" stroke="#999"/>
    <path d="m41.53 93.152 32 20M73 112v30M74 25v54" stroke="#D9D9D9"/>
    <mask id="a" maskUnits="userSpaceOnUse" x="48" y="119" width="16" height="16">
        <path d="M64 119H48v16h16v-16Z" fill="#fff"/>
    </mask>
    <g mask="url(#a)" fill="#999">
        <path d="M49.625 130.815c.282 0 .53-.071.741-.177.389 1.201 1.52 2.049 2.861 2.049a3 3 0 0 0 3.003-3.002v-1.802a.935.935 0 0 0-.919-.918h-4.167a.904.904 0 0 0-.883.706 1.663 1.663 0 0 0-.6-.106c-.92 0-1.661.742-1.661 1.66 0 .813.742 1.59 1.625 1.59Zm0-2.296c.282 0 .494.177.565.424v.424a.595.595 0 0 1-1.166-.177c0-.318.283-.671.6-.671Z"/>
        <path d="M62.552 122.479c.812-.142 1.448-.848 1.448-1.696 0-.953-.777-1.73-1.73-1.73H51.956c-.954 0-1.73.777-1.73 1.73 0 .954.776 1.731 1.73 1.731h.6v3.038c0 .388.318.706.672.706.353 0 .67-.318.67-.706v-3.038h4.522l1.377 10.384H49.095a1.025 1.025 0 0 0 0 2.049H62.87c.565 0 1.06-.459 1.024-1.024-.141-2.897-1.342-11.444-1.342-11.444Z"/>
    </g>
    <path d="M106.211 50.563c-4.112.373-6.147.568-6.181.602-.05.043-.059.195-.059.857v.805h10.7l.772-.983c1.06-1.357 1.195-1.544 1.195-1.611 0-.085-.152-.23-.237-.22-.043 0-2.824.245-6.19.55ZM99.962 54.523c0 .687.009.772.077.831.067.068.559.068 6.164.068 6.656 0 6.274.008 6.274-.237 0-.085-.161-.23-.839-.772l-.84-.67H99.962v.78ZM99.97 56.626c.06.975.459 1.95 1.128 2.79 1.026 1.271 2.756 1.992 4.376 1.822 1.797-.186 3.298-1.23 4.078-2.823.297-.61.5-1.408.5-1.976v-.22H99.945l.026.407Z" fill="#999"/>
    <path d="M101.022 61.238c-1.967.797-3.129 1.357-3.654 1.755-.882.661-1.492 1.577-1.933 2.908a7.938 7.938 0 0 0-.407 1.934c-.068.763-.094.746.958 1.102 2 .687 5.121 1.051 9.013 1.051 3.917 0 7.012-.356 9.013-1.051 1.017-.348 1.017-.356.975-.958-.11-1.518-.704-3.18-1.493-4.163-.474-.594-1.025-1.01-1.933-1.459-.941-.458-3.137-1.382-3.179-1.34-.009.01-.136.458-.263.984-.628 2.493-1.272 4.13-2.467 6.308-.518.933-.619 1.035-.84.772-.229-.271-1.034-1.772-1.484-2.764-.593-1.314-1.187-3.086-1.568-4.723-.136-.576-.144-.602-.178-.602 0 .026-.255.127-.56.246Z" fill="#999"/>
    <path d="M104.091 63.163c-.042.05-.025.195.077.737.068.373.152.704.178.73.068.076 1.255.084 1.323 0 .025-.026.101-.357.178-.73.11-.542.127-.695.084-.737-.084-.093-1.763-.093-1.84 0ZM104.354 65.062c-.034.06-.305 1.28-.305 1.39 0 .094.492 1.086.78 1.586l.17.289.127-.204c.212-.33.839-1.585.839-1.67 0-.093-.279-1.34-.313-1.39-.034-.069-1.255-.052-1.298 0ZM54.583 41.416h-3.168c-.764 0-1.39.622-1.393 1.386l-.023 4.326a.59.59 0 0 0 .587.592h.003a.59.59 0 0 0 .589-.586l.021-4.326v-.002a.117.117 0 0 1 .233.002l.001 9.898a.707.707 0 0 0 1.413 0v-5.648h.305v5.648a.707.707 0 0 0 1.413 0c0-9.34-.013-3.998-.013-9.89 0-.066.052-.12.118-.123a.124.124 0 0 1 .129.114l-.005 4.323a.59.59 0 0 0 1.178.001l.005-4.326v-.004a1.396 1.396 0 0 0-1.393-1.386ZM54.22 39.807a1.22 1.22 0 1 1-2.44 0 1.22 1.22 0 0 1 2.44 0ZM65.967 46.214c-.011-.031-1.082-3.085-1.25-3.575-.271-.79-.726-1.19-1.352-1.19H61.33c-.626 0-1.081.4-1.352 1.19-.169.49-1.24 3.544-1.25 3.575a.585.585 0 0 0 1.103.387c.034-.099.679-1.889 1.038-2.919-.038.308.071-.33-.836 4.349a.326.326 0 0 0 .32.387h.445v4.24a.701.701 0 1 0 1.404 0v-4.24h.303v4.24a.701.701 0 1 0 1.402 0v-4.24h.447a.325.325 0 0 0 .319-.387c-.898-4.637-.8-4.098-.83-4.349.362 1.038.987 2.822 1.022 2.919a.584.584 0 1 0 1.102-.387ZM63.564 39.852a1.212 1.212 0 1 1-2.423 0 1.212 1.212 0 0 1 2.423 0ZM57.492 39.372a.451.451 0 0 0-.45.451v12.353a.451.451 0 0 0 .901 0V39.823a.451.451 0 0 0-.45-.45Z" fill="#999"/>
    <path d="M32 22H16v6h16v-6ZM32 140H16v6h16v-6Z" stroke="#999"/>
    <path d="M838 143h57.171c6.533 0 11.829-5.468 11.829-12.21V37.21c0-6.742-5.296-12.21-11.829-12.21H838v67M871 25v117" stroke="#D9D9D9"/>
    <path d="M851.583 35.829h-3.168c-.764 0-1.389.622-1.393 1.386L847 41.541c-.002.325.26.59.586.592h.003a.59.59 0 0 0 .589-.586l.021-4.326v-.001a.117.117 0 0 1 .234.002v9.898a.707.707 0 0 0 1.413 0v-5.648h.305v5.648a.707.707 0 0 0 1.413 0c0-9.34-.012-4-.013-9.89 0-.067.053-.12.119-.124a.124.124 0 0 1 .128.114l-.004 4.323a.589.589 0 1 0 1.178.001l.004-4.326v-.003a1.397 1.397 0 0 0-1.394-1.387h.001ZM851.219 34.22a1.22 1.22 0 1 1-2.44 0 1.22 1.22 0 0 1 2.44 0ZM862.967 40.627c-.011-.031-1.081-3.085-1.25-3.575-.271-.79-.726-1.19-1.351-1.19h-2.036c-.626 0-1.081.4-1.352 1.19-.168.49-1.239 3.544-1.25 3.575a.585.585 0 0 0 1.103.387c.035-.099.679-1.889 1.038-2.919-.037.308.071-.33-.835 4.349a.326.326 0 0 0 .319.387h.446v4.24a.701.701 0 1 0 1.403 0v-4.24h.303v4.24a.701.701 0 1 0 1.403 0v-4.24h.446a.326.326 0 0 0 .319-.387c-.898-4.637-.799-4.098-.83-4.349l1.022 2.919a.584.584 0 1 0 1.102-.387ZM854.493 33.785a.451.451 0 0 0-.451.451V46.59a.451.451 0 0 0 .902 0V34.236a.451.451 0 0 0-.451-.45ZM860.423 34.212a1.211 1.211 0 1 1-2.422 0 1.211 1.211 0 0 1 2.422 0Z" fill="#999"/>
    <path d="m838.39 86.207 13-10M851 77V61" stroke="#D9D9D9"/>
    <path d="m858.834 133.311.494-10.467h.716a.542.542 0 0 0 0-1.081h-3.129v-1.074c0-1.023-.694-1.689-1.796-1.689h-2.678c-1.102 0-1.79.666-1.79 1.689v1.074h-3.114a.553.553 0 0 0-.537.544c0 .294.251.537.537.537h.716l.494 10.474c.05 1.031.73 1.682 1.761 1.682h6.565c1.024 0 1.711-.659 1.761-1.689Zm-7.037-12.55c0-.408.301-.694.73-.694h2.513c.436 0 .737.286.737.694v1.002h-3.98v-1.002Zm-1.181 13.165c-.416 0-.723-.315-.745-.73l-.501-10.352h8.813l-.473 10.352c-.021.422-.322.73-.744.73h-6.35Zm5.297-1.26c.236 0 .415-.193.423-.465l.214-7.56c.007-.272-.179-.472-.422-.472-.222 0-.408.207-.415.465l-.215 7.567c-.007.258.172.465.415.465Zm-4.245 0c.243 0 .422-.207.415-.465l-.215-7.567c-.007-.258-.2-.465-.422-.465-.243 0-.422.2-.415.472l.222 7.56c.007.272.179.465.415.465Zm2.556-.465v-7.567c0-.258-.194-.465-.43-.465s-.437.207-.437.465v7.567c0 .258.201.465.437.465.229 0 .43-.207.43-.465ZM890.921 90.077v1.564l.892.893h.432c.297 0 .537-.24.537-.538v-1.38a.537.537 0 0 0-.537-.537h-1.324v-.002ZM884.796 90.077h-1.266a.537.537 0 0 0-.538.538v1.38c0 .297.24.537.538.537h3.721l-2.455-2.455ZM890.562 91.281v-1.204h-1.204l1.204 1.204ZM891.913 89.554c-.052-.394-.29-1.172-1.358-1.369-1.048-.193-1.338-.905-1.417-1.285-.018-.08-.126-.098-.167-.025-.215.386-.543 1.212.136 1.805.848.741 1.959.392 2.663.955.061.05.152-.002.143-.081Z" fill="#999"/>
    <path d="M893.655 85.342A7.978 7.978 0 0 0 887.998 83a7.963 7.963 0 0 0-5.656 2.344 7.949 7.949 0 0 0-1.713 2.54 7.944 7.944 0 0 0-.629 3.114 7.962 7.962 0 0 0 2.344 5.656A7.963 7.963 0 0 0 888 98.999a7.963 7.963 0 0 0 5.656-2.344A7.962 7.962 0 0 0 896 90.999c0-1.08-.211-2.127-.629-3.114a8.047 8.047 0 0 0-1.716-2.542Zm-5.657 11.684a5.986 5.986 0 0 1-4.262-1.765 5.988 5.988 0 0 1-1.765-4.263c0-1.277.394-2.492 1.125-3.508l8.412 8.412a5.995 5.995 0 0 1-3.51 1.124Zm4.902-2.52-8.41-8.41a5.98 5.98 0 0 1 3.508-1.125 5.99 5.99 0 0 1 4.263 1.765 5.992 5.992 0 0 1 1.765 4.262 5.977 5.977 0 0 1-1.126 3.508Z" fill="#999"/>
    <path d="M850 60h21" stroke="#D9D9D9"/>
    <path d="M871 61v21" stroke="#999"/>

    <!-- Верхняя горизонтальная линия: -->
    <path d="M131 30L835 30" stroke="#999999" stroke-width="4"></path>
    <!-- аналог: -->
    <!-- <line x1="131" y1="30" x2="835" y2="30" stroke="#999999" stroke-width="4"></line> -->

    <!-- Верхние вертикальные линии: -->
    <path d="M133 30L133 92" stroke="#999999" stroke-width="4"></path>
    <path d="M219 30L219 92" stroke="#999999" stroke-width="4"></path>
    <path d="M307 30L307 92" stroke="#999999" stroke-width="4"></path>
    <path d="M395 30L395 92" stroke="#999999" stroke-width="4"></path>
    <path d="M483 30L483 92" stroke="#999999" stroke-width="4"></path>
    <path d="M571 30L571 92" stroke="#999999" stroke-width="4"></path>
    <path d="M659 30L659 92" stroke="#999999" stroke-width="4"></path>
    <path d="M747 30L747 92" stroke="#999999" stroke-width="4"></path>
    <path d="M833 30L833 92" stroke="#999999" stroke-width="4"></path>

    <!-- Нижние вертикальные линии: -->
    <path d="M133 115L133 140" stroke="#999999" stroke-width="4"></path>
    <path d="M219 115L219 140" stroke="#999999" stroke-width="4"></path>
    <path d="M307 115L307 140" stroke="#999999" stroke-width="4"></path>
    <path d="M395 115L395 140" stroke="#999999" stroke-width="4"></path>
    <path d="M483 115L483 140" stroke="#999999" stroke-width="4"></path>
    <path d="M571 115L571 140" stroke="#999999" stroke-width="4"></path>
    <path d="M659 115L659 140" stroke="#999999" stroke-width="4"></path>
    <path d="M747 115L747 140" stroke="#999999" stroke-width="4"></path>
    <path d="M833 115L833 140" stroke="#999999" stroke-width="4"></path>

    <!-- Нижняя горизонтальная линия: -->
    <path d="M133 138L835 138" stroke="#999999" stroke-width="4"></path>
</svg>
